PathFileType	4	(X/Y/Z)	C:\Users\Basilio\Documents\Thesis Gigler\squatting_fais\c3dfiles\038\SLS_back_pre4\markers_experimental.trc
DataRate	CameraRate	NumFrames	NumMarkers	Units	OrigDataRate	OrigDataStartFrame	OrigNumFrames
200.000000	200.000000	4	63	mm	200.000000	991	1982
Frame#	Time	FHD			LBHD			RBHD			C7			T10			CLAV			LSHO			LUUPA			LMUPA			LDUPA			LLEP			LMEP			LRAD			LUL			LRFIN			RSHO			RUPA1			RMUPA			RDUPA			RLEP			RMEP			RRAD			RUL			RUFIN			LASI			RASI			USACR			LSACR			RSACR			LTHI1			LTHI2			LTHI3			LTHI4			LLFC			LMFC			LTIB1			LTIB2			LTIB3			LTIB4			LLMAL			LMMAL			LHEE			LMT1			LMT2			LMT5			RTHI			RTHI2			RTHI3			RTHI4			RLFC			RMFC			RTIB1			RTIB2			RTIB3			RTIB4			RLMAL			RMMAL			RHEE			RMT1			RMT2			RMT5			*61			*62			
		X1	Y1	Z1	X2	Y2	Z2	X3	Y3	Z3	X4	Y4	Z4	X5	Y5	Z5	X6	Y6	Z6	X7	Y7	Z7	X8	Y8	Z8	X9	Y9	Z9	X10	Y10	Z10	X11	Y11	Z11	X12	Y12	Z12	X13	Y13	Z13	X14	Y14	Z14	X15	Y15	Z15	X16	Y16	Z16	X17	Y17	Z17	X18	Y18	Z18	X19	Y19	Z19	X20	Y20	Z20	X21	Y21	Z21	X22	Y22	Z22	X23	Y23	Z23	X24	Y24	Z24	X25	Y25	Z25	X26	Y26	Z26	X27	Y27	Z27	X28	Y28	Z28	X29	Y29	Z29	X30	Y30	Z30	X31	Y31	Z31	X32	Y32	Z32	X33	Y33	Z33	X34	Y34	Z34	X35	Y35	Z35	X36	Y36	Z36	X37	Y37	Z37	X38	Y38	Z38	X39	Y39	Z39	X40	Y40	Z40	X41	Y41	Z41	X42	Y42	Z42	X43	Y43	Z43	X44	Y44	Z44	X45	Y45	Z45	X46	Y46	Z46	X47	Y47	Z47	X48	Y48	Z48	X49	Y49	Z49	X50	Y50	Z50	X51	Y51	Z51	X52	Y52	Z52	X53	Y53	Z53	X54	Y54	Z54	X55	Y55	Z55	X56	Y56	Z56	X57	Y57	Z57	X58	Y58	Z58	X59	Y59	Z59	X60	Y60	Z60	X61	Y61	Z61	X62	Y62	Z62	X63	Y63	Z63	

992	4.955	-149.3419799804688	1508.745849609375	-1055.259887695313	-306.2715454101563	1467.034423828125	-1117.1484375	-299.0404357910157	1449.704711914063	-972.8181762695315	-363.0362854003907	1297.357421875	-1049.607299804688	-413.6992492675782	1026.149169921875	-1026.28759765625	-220.5937805175782	1262.444702148438	-1059.68115234375	-282.0326843261719	1315.012939453125	-1194.01708984375	-122.7381362915039	1273.54833984375	-1332.923461914063	-94.38864135742189	1304.967895507813	-1303.607421875	-54.54874801635744	1283.765502929688	-1342.040161132813	7.712401390075685	1288.46044921875	-1344.797485351563	20.88951110839844	1213.169189453125	-1328.908813476563	nan	nan	nan	303.8799438476563	1306.529052734375	-1312.5205078125	364.2222595214844	1324.30126953125	-1220.84716796875	-265.4874267578126	1305.95703125	-923.075134277344	-104.2531280517578	1299.10595703125	-820.627136230469	-72.46224975585939	1306.84716796875	-857.0654296875002	-34.69761657714844	1298.746948242188	-810.0988769531252	39.19992828369141	1300.247314453125	-807.357116699219	48.27802658081056	1222.121459960938	-819.872497558594	311.7095947265626	1310.953369140625	-901.2965087890627	324.0841064453126	1325.670043945313	-833.6365966796877	391.1353454589845	1348.444091796875	-908.9389648437502	-275.2421264648438	819.354675292969	-1113.9775390625	-307.4969787597657	831.981384277344	-868.785583496094	-454.3366699218751	884.7174072265627	-1013.1298828125	-466.8207092285157	854.9614257812502	-1043.481567382813	-474.0694274902345	856.3476562500002	-986.2459716796877	-162.4963684082032	570.3900146484376	-1166.194946289063	-89.13698577880861	525.7535400390626	-1156.649169921875	-60.0265464782715	553.8259887695314	-1127.411743164063	-85.54394531250001	466.2378234863282	-1139.919921875	-64.58389282226564	419.5573730468751	-1121.902221679688	-68.54695129394533	427.7897033691407	-1007.566833496094	-129.2604370117188	265.0030822753907	-1022.066833496094	-187.947738647461	244.0667724609376	-1087.545166015625	-163.1192932128907	227.3282470703126	-1051.956909179688	-222.4895324707032	178.1934051513672	-1014.940246582031	-370.5460815429688	116.3821640014649	-1038.323974609375	-330.0203857421876	129.117416381836	-961.4993896484377	-432.555877685547	101.2186126708985	-980.237731933594	-232.2075195312501	43.6041488647461	-973.7695312500002	-223.566390991211	45.19929122924805	-1024.136352539063	-270.2350158691407	36.44667053222657	-1071.104614257813	-323.0841064453126	571.3657226562501	-787.2698364257815	-277.2541503906251	523.9765014648439	-770.899841308594	-244.6212921142579	529.4921875000001	-774.2355957031252	-291.3797912597657	438.0420532226564	-776.105163574219	-270.2996520996094	348.4641113281251	-782.6085205078127	-263.6120300292969	333.8416137695313	-899.258483886719	-404.0071716308595	256.9965209960938	-828.2188720703127	-501.6032104492189	320.6192932128907	-815.729919433594	-488.2294006347657	274.5441284179688	-819.3104248046877	-529.5006103515626	253.2405853271485	-857.183044433594	-657.5670166015626	297.3620300292969	-855.7881469726565	-634.6290283203126	261.8721923828126	-928.5335693359377	-672.7211303710939	351.6713562011719	-931.1915283203127	-723.1482543945314	140.8458404541016	-920.6031494140627	-734.6660766601564	144.2447509765625	-873.2456665039065	-761.3063354492189	192.9121856689454	-842.115661621094	nan	nan	nan	nan	nan	nan	
993	4.96	-149.0726165771485	1508.695068359375	-1055.37060546875	-306.0961303710938	1466.596435546875	-1117.152954101563	-298.7749938964844	1449.350219726563	-972.937683105469	-362.9232177734376	1297.02783203125	-1049.63916015625	-413.7086181640626	1025.806640625	-1026.230712890625	-220.3217773437501	1262.097290039063	-1059.69677734375	-281.8283691406251	1314.532104492188	-1193.962158203125	-122.4900436401367	1273.082763671875	-1332.8974609375	-93.84902191162111	1304.497802734375	-1303.487060546875	-54.31737136840822	1283.369384765625	-1342.025024414063	7.512954235076906	1288.367309570313	-1344.725219726563	21.26952171325684	1212.87939453125	-1328.809326171875	nan	nan	nan	304.0935668945313	1306.121826171875	-1312.41796875	364.4598083496094	1324.089111328125	-1220.734497070313	-265.5589294433594	1305.621337890625	-923.0145263671877	-104.0572509765625	1298.7685546875	-820.634460449219	-72.33547210693361	1306.415405273438	-857.1067504882815	-34.54728317260743	1298.677368164063	-810.0631103515627	39.23144149780274	1300.005004882813	-807.4199218750002	48.373348236084	1221.745849609375	-819.8710937500002	311.7801208496094	1310.2578125	-901.359802246094	324.0719909667969	1325.251220703125	-833.673767089844	391.324188232422	1347.875732421875	-909.1512451171877	-275.3961486816407	819.1197509765627	-1113.702880859375	-307.7721557617188	831.7066040039065	-868.565856933594	-454.568084716797	884.4922485351565	-1012.960021972656	-466.8763427734376	854.7683105468752	-1043.436645507813	-474.234100341797	856.1292724609377	-986.155700683594	-162.5068054199219	570.2737426757814	-1165.9765625	-89.09720611572267	525.7051391601564	-1156.472534179688	-60.06359863281251	553.8735961914064	-1127.125732421875	-85.68856811523439	466.3584594726564	-1139.803344726563	-64.59407806396486	419.4465942382814	-1121.689575195313	-68.4942092895508	427.7145080566407	-1007.497802734375	-129.2085876464844	264.9562377929688	-1021.896362304688	-187.8211059570313	244.0277404785157	-1087.423828125	-163.0001068115235	227.3406677246094	-1051.78955078125	-222.4038848876954	178.0653076171875	-1014.79638671875	-370.5440063476563	116.3835601806641	-1038.320678710938	-330.0385742187501	129.0594482421875	-961.4553222656252	-432.5865783691407	101.1867141723633	-980.1961059570315	-232.1585235595704	43.56179428100587	-973.761169433594	-223.6235046386719	45.14259719848634	-1024.123779296875	-270.2380676269532	36.43804550170899	-1071.108764648438	-323.3043212890626	571.0566406250001	-787.117126464844	-277.4308471679688	523.5625610351564	-770.837097167969	-244.8150787353516	529.1696166992189	-774.2163085937502	-291.5086364746094	437.708709716797	-776.1510009765627	-270.6489562988282	347.7602844238282	-782.664489746094	-263.7871093750001	333.5797424316407	-899.1203613281252	-404.1553955078126	256.6449890136719	-828.0682373046877	-502.0144653320314	319.9849243164063	-815.7590332031252	-488.3423461914064	274.3337097167969	-819.1325683593752	-529.6115722656251	252.8876953125001	-857.0723266601565	-657.7113647460939	296.9857482910157	-855.4583129882815	-634.7664184570314	261.5834960937501	-928.3696289062502	-672.9900512695314	351.4403991699219	-931.0292968750002	-723.0890502929689	141.1227111816407	-920.565612792969	-734.8211059570314	144.3682708740235	-873.463317871094	-761.3644409179689	192.5361480712891	-841.8720703125002	nan	nan	nan	nan	nan	nan	
994	4.965	-148.9818725585938	1508.197998046875	-1055.242065429688	-305.8986816406251	1466.185424804688	-1117.200317382813	-298.6114196777344	1448.952880859375	-973.0667724609377	-362.7892150878907	1296.574584960938	-1049.6884765625	-413.6692504882814	1025.516967773438	-1026.183227539063	-220.2291717529297	1261.634765625	-1059.600463867188	-281.6116027832032	1314.035766601563	-1194.035400390625	-122.1151885986328	1272.62939453125	-1332.856811523438	-93.47899627685548	1304.199584960938	-1303.676025390625	-54.06068801879884	1282.950805664063	-1341.947509765625	8.256043434143068	1287.724731445313	-1344.677978515625	21.53208541870118	1212.62744140625	-1328.728515625	nan	nan	nan	304.3613586425782	1305.861083984375	-1312.335327148438	364.6991882324219	1323.731689453125	-1220.662353515625	-265.5124816894532	1305.348022460938	-923.0582275390627	-103.9056396484375	1298.420043945313	-820.6354980468752	-72.3485565185547	1306.028686523438	-857.1318359375002	-34.51465606689454	1298.418701171875	-810.150817871094	39.28424835205079	1299.798706054688	-807.5034790039065	48.44244384765626	1221.42822265625	-819.703063964844	311.8462829589844	1309.538818359375	-901.4025878906252	324.1243286132813	1324.851684570313	-833.7991943359377	391.2686157226564	1347.004516601563	-909.0980224609377	-275.5132446289063	818.8864746093752	-1113.487426757813	-308.0090332031251	831.3830566406252	-868.4324340820315	-454.7803955078126	884.3308715820315	-1012.846984863281	-466.9074707031251	854.4299316406252	-1043.389770507813	-474.3364257812501	856.0285644531252	-985.9963378906252	-162.5707092285157	570.2089843750001	-1165.880493164063	-89.13819122314455	525.6579589843751	-1156.323608398438	-60.11255645751955	553.7690429687501	-1126.877685546875	-85.67668914794923	466.2394409179689	-1139.66455078125	-64.48786926269533	419.3984375000001	-1121.502197265625	-68.47183990478517	427.6825561523439	-1007.362854003906	-129.2379913330078	264.8589172363282	-1021.787109375	-187.7711334228516	243.9822998046876	-1087.346435546875	-162.9677276611328	227.3557586669922	-1051.695922851563	-222.4829864501954	178.1182403564453	-1014.705078125	-370.4751281738282	116.3633651733399	-1038.26611328125	-330.1042175292969	129.0041961669922	-961.5180664062502	-432.5889892578126	101.183837890625	-980.1954345703127	-232.1969604492188	43.61448669433594	-973.7423095703127	-223.6026306152344	45.15544891357423	-1024.137939453125	-270.2219543457032	36.42420196533204	-1071.130249023438	-323.6254882812501	570.7037353515626	-787.0642700195315	-277.7032775878907	523.2673339843751	-770.7609863281252	-245.0201873779297	528.9024047851564	-774.0883789062502	-291.7052307128907	437.4080505371095	-776.0875244140627	-270.7450256347657	347.4568176269532	-782.5603637695315	-264.0876159667969	333.1938476562501	-899.1386718750002	-404.2461547851564	256.4078369140626	-827.9992675781252	-502.1369628906251	319.7059020996094	-815.609558105469	-488.3718872070314	274.0651245117188	-819.2105102539065	-530.0822753906251	252.7481689453126	-856.042175292969	-657.9010009765626	296.7102661132813	-855.315368652344	-634.9448852539064	261.3107604980469	-928.1702270507815	-673.1356811523439	350.9983825683594	-930.7531738281252	-723.0994873046876	140.6263580322266	-920.4111328125002	-734.8735351562501	144.024658203125	-873.339782714844	-761.4472045898439	192.1191711425782	-841.6777954101565	nan	nan	nan	nan	nan	nan	
995	4.97	-148.7891693115235	1507.668090820313	-1055.131713867188	-305.6171875000001	1465.7705078125	-1117.278686523438	-298.3984680175782	1448.568725585938	-973.0937500000002	-362.6474609375001	1296.156127929688	-1049.757690429688	-413.6564025878907	1025.1884765625	-1026.146850585938	-220.0426330566407	1261.206665039063	-1059.572875976563	-281.4924926757813	1313.556640625	-1193.967895507813	-121.7681884765625	1272.148803710938	-1332.817138671875	-93.24270629882814	1303.418334960938	-1303.495239257813	-53.6655960083008	1282.366333007813	-1341.921997070313	8.597172737121584	1287.3095703125	-1344.689086914063	21.85335922241211	1212.324584960938	-1328.672119140625	nan	nan	nan	304.6437377929688	1305.602905273438	-1312.1875	364.9435119628907	1323.343383789063	-1220.5263671875	-265.4151000976563	1305.104248046875	-923.0696411132815	-103.8421936035157	1298.196655273438	-820.6082763671877	-72.48043823242189	1305.852661132813	-857.2072753906252	-34.39524078369141	1298.150634765625	-810.1750488281252	39.42851257324219	1299.464233398438	-807.5471191406252	48.51716613769533	1221.132568359375	-819.7132568359377	311.8635253906251	1308.947875976563	-901.4216918945315	324.3724060058594	1324.508666992188	-833.9838867187502	391.3245544433595	1346.059692382813	-909.5476074218752	-275.5693054199219	818.6858520507815	-1113.350341796875	-308.2814331054688	831.0715332031252	-868.2876586914065	-454.8809204101564	883.9676513671877	-1012.759521484375	-467.7330627441407	854.3948364257815	-1043.49169921875	-474.4451904296876	855.5814208984377	-985.9294433593752	-162.6484375	570.1270141601564	-1165.716674804688	-89.56328582763673	525.4783325195314	-1155.822875976563	-60.24318695068361	553.6309814453126	-1126.677734375	-85.5102996826172	466.0819702148439	-1139.463500976563	-64.52029418945314	419.385711669922	-1121.38134765625	-68.53929138183595	427.7020263671876	-1007.355041503906	-129.1941070556641	264.8509826660157	-1021.72314453125	-187.7758941650391	243.9817810058594	-1087.311279296875	-162.9332122802735	227.3275604248047	-1051.629516601563	-222.4920501708985	178.0610046386719	-1014.690063476563	-370.5468750000001	116.383659362793	-1038.323486328125	-330.0145263671876	129.0129089355469	-961.4608154296877	-432.5499267578126	101.1815643310547	-980.226745605469	-232.1917266845704	43.59330368041993	-973.7385253906252	-223.4608154296876	45.26235580444337	-1024.369506835938	-270.2402648925782	36.43491363525391	-1071.105590820313	-323.8215637207032	570.2440185546876	-786.9586181640627	-277.8657836914063	522.9716796875001	-770.6880493164065	-245.2242431640626	528.5752563476564	-773.9631347656252	-291.8490600585938	437.0751342773439	-775.9879150390627	-270.7303466796876	347.0849914550782	-782.3906250000002	-264.1390991210938	332.8243103027344	-899.1688232421877	-404.3131713867189	256.2335815429688	-827.8930664062502	-502.0324707031251	319.6842651367188	-815.3872070312502	-488.5709533691407	273.6405639648438	-819.1555175781252	-530.2498168945314	252.3651123046876	-856.007751464844	-658.0953979492189	296.3309020996094	-855.141052246094	-634.9931640625001	261.0291748046876	-927.9774169921877	-673.3592529296876	350.7908325195313	-930.7177734375002	-723.1607055664064	140.5552825927735	-920.2227172851565	-734.9758911132814	143.6493835449219	-873.2651367187502	-761.5301513671876	191.7512664794922	-841.5501708984377	nan	nan	nan	nan	nan	nan	
